<?xml version="1.0" encoding="utf-8"?>
<!-- Generator: Adobe Illustrator 15.0.0, SVG Export Plug-In . SVG Version: 6.00 Build 0)  -->
<!DOCTYPE svg PUBLIC "-//W3C//DTD SVG 1.1//EN" "http://www.w3.org/Graphics/SVG/1.1/DTD/svg11.dtd">
<svg version="1.1" id="Layer_1" xmlns="http://www.w3.org/2000/svg" xmlns:xlink="http://www.w3.org/1999/xlink" x="0px" y="0px"
	 width="256px" height="256px" viewBox="0 0 256 256" enable-background="new 0 0 256 256" xml:space="preserve">
<g>
	<path fill="#546E7A" d="M54.857,231.621V48.763h121.905c13.41,0,24.381,10.972,24.381,24.381v158.478
		c0,13.408-10.971,24.379-24.381,24.379H79.238C65.829,256,54.857,245.029,54.857,231.621z"/>
	<path fill="#4FC3F7" d="M176.762,67.049H79.238c-3.658,0-6.096,2.438-6.096,6.095v48.763c0,3.656,2.438,6.095,6.096,6.095h97.523
		c3.658,0,6.096-2.438,6.096-6.095V73.144C182.857,69.486,180.42,67.049,176.762,67.049z"/>
	<path fill="#B3E5FC" d="M97.524,170.668H85.333c-3.657,0-6.095-2.438-6.095-6.097v-6.094c0-3.658,2.438-6.096,6.095-6.096h12.191
		c3.657,0,6.095,2.438,6.095,6.096v6.094C103.619,168.23,101.181,170.668,97.524,170.668z"/>
	<path fill="#B3E5FC" d="M134.096,170.668h-12.191c-3.657,0-6.095-2.438-6.095-6.097v-6.094c0-3.658,2.438-6.096,6.095-6.096h12.191
		c3.656,0,6.094,2.438,6.094,6.096v6.094C140.189,168.23,137.752,170.668,134.096,170.668z"/>
	<path fill="#B3E5FC" d="M170.668,170.668h-12.193c-3.656,0-6.094-2.438-6.094-6.097v-6.094c0-3.658,2.438-6.096,6.094-6.096h12.193
		c3.656,0,6.094,2.438,6.094,6.096v6.094C176.762,168.23,174.324,170.668,170.668,170.668z"/>
	<path fill="#B3E5FC" d="M97.524,201.144H85.333c-3.657,0-6.095-2.438-6.095-6.094v-6.097c0-3.657,2.438-6.096,6.095-6.096h12.191
		c3.657,0,6.095,2.438,6.095,6.096v6.097C103.619,198.706,101.181,201.144,97.524,201.144z"/>
	<path fill="#B3E5FC" d="M134.096,201.144h-12.191c-3.657,0-6.095-2.438-6.095-6.094v-6.097c0-3.657,2.438-6.096,6.095-6.096h12.191
		c3.656,0,6.094,2.438,6.094,6.096v6.097C140.189,198.706,137.752,201.144,134.096,201.144z"/>
	<path fill="#B3E5FC" d="M170.668,201.144h-12.193c-3.656,0-6.094-2.438-6.094-6.094v-6.097c0-3.657,2.438-6.096,6.094-6.096h12.193
		c3.656,0,6.094,2.438,6.094,6.096v6.097C176.762,198.706,174.324,201.144,170.668,201.144z"/>
	<path fill="#B3E5FC" d="M97.524,231.621H85.333c-3.657,0-6.095-2.438-6.095-6.096v-6.097c0-3.656,2.438-6.094,6.095-6.094h12.191
		c3.657,0,6.095,2.438,6.095,6.094v6.097C103.619,229.183,101.181,231.621,97.524,231.621z"/>
	<path fill="#B3E5FC" d="M134.096,231.621h-12.191c-3.657,0-6.095-2.438-6.095-6.096v-6.097c0-3.656,2.438-6.094,6.095-6.094h12.191
		c3.656,0,6.094,2.438,6.094,6.094v6.097C140.189,229.183,137.752,231.621,134.096,231.621z"/>
	<path fill="#B3E5FC" d="M170.668,231.621h-12.193c-3.656,0-6.094-2.438-6.094-6.096v-6.097c0-3.656,2.438-6.094,6.094-6.094h12.193
		c3.656,0,6.094,2.438,6.094,6.094v6.097C176.762,229.183,174.324,231.621,170.668,231.621z"/>
	<path fill="#37474F" d="M79.238,48.763H54.857V12.191C54.857,5.486,60.342,0,67.047,0l0,0c6.705,0,12.191,5.486,12.191,12.191
		V48.763z"/>
</g>
</svg>
