<?xml version="1.0" encoding="utf-8"?>
<!-- Generator: Adobe Illustrator 15.0.0, SVG Export Plug-In . SVG Version: 6.00 Build 0)  -->
<!DOCTYPE svg PUBLIC "-//W3C//DTD SVG 1.1//EN" "http://www.w3.org/Graphics/SVG/1.1/DTD/svg11.dtd">
<svg version="1.1" id="Layer_1" xmlns="http://www.w3.org/2000/svg" xmlns:xlink="http://www.w3.org/1999/xlink" x="0px" y="0px"
	 width="256px" height="256px" viewBox="0 0 256 256" enable-background="new 0 0 256 256" xml:space="preserve">
<g>
	<path fill="#455A64" d="M197.818,23.273h-58.183c0,6.4-5.235,11.636-11.636,11.636s-11.637-5.236-11.637-11.636H58.182
		c-12.801,0-23.273,10.473-23.273,23.272v186.183c0,12.799,10.473,23.271,23.273,23.271h139.637c12.8,0,23.273-10.473,23.273-23.271
		V46.545C221.092,33.746,210.618,23.273,197.818,23.273z"/>
	<path fill="#FFFFFF" d="M197.818,238.545H58.182c-3.491,0-5.818-2.326-5.818-5.816V46.545c0-3.491,2.327-5.818,5.818-5.818h139.637
		c3.491,0,5.819,2.327,5.819,5.818v186.183C203.638,236.219,201.31,238.545,197.818,238.545z"/>
	<g>
		<path fill="#90A4AE" d="M139.636,23.273c0,6.4-5.235,11.636-11.636,11.636s-11.637-5.236-11.637-11.636H75.636v23.272
			c0,6.4,5.236,11.637,11.637,11.637h81.456c6.399,0,11.636-5.237,11.636-11.637V23.273H139.636z"/>
		<path fill="#90A4AE" d="M128,0c-12.801,0-23.273,10.473-23.273,23.273c0,12.8,10.473,23.272,23.273,23.272
			c12.8,0,23.273-10.473,23.273-23.272C151.273,10.473,140.8,0,128,0z M128,34.909c-6.4,0-11.637-5.236-11.637-11.636
			S121.6,11.636,128,11.636s11.636,5.237,11.636,11.637S134.4,34.909,128,34.909z"/>
	</g>
	<polygon fill="#4CAF50" points="166.4,108.219 114.036,160.582 89.6,135.563 75.055,150.109 114.618,189.092 180.945,122.764 	"/>
</g>
</svg>
