<?xml version="1.0" encoding="utf-8"?>
<!-- Generator: Adobe Illustrator 15.0.0, SVG Export Plug-In . SVG Version: 6.00 Build 0)  -->
<!DOCTYPE svg PUBLIC "-//W3C//DTD SVG 1.1//EN" "http://www.w3.org/Graphics/SVG/1.1/DTD/svg11.dtd">
<svg version="1.1" id="Layer_1" xmlns="http://www.w3.org/2000/svg" xmlns:xlink="http://www.w3.org/1999/xlink" x="0px" y="0px"
	 width="256px" height="256px" viewBox="0 0 256 256" enable-background="new 0 0 256 256" xml:space="preserve">
<g>
	<g>
		
			<rect x="195.716" y="154.004" transform="matrix(-0.7071 0.7071 -0.7071 -0.7071 503.265 208.2479)" fill="#616161" width="25.575" height="108.698"/>
		<circle fill="#616161" cx="102.328" cy="102.304" r="102.304"/>
	</g>
	
		<rect x="206.032" y="179.829" transform="matrix(-0.7071 0.7071 -0.7071 -0.7071 528.5106 219.3865)" fill="#37474F" width="25.575" height="78.646"/>
	<circle fill="#64B5F6" cx="102.328" cy="102.304" r="83.122"/>
	<path fill="#BBDEFB" d="M146.447,65.219c-10.869-12.788-26.854-20.461-44.119-20.461c-17.264,0-33.249,7.673-44.118,20.461
		c-2.558,2.558-1.918,7.033,0.639,8.952c2.558,2.558,7.034,1.917,8.952-0.64c8.952-10.23,21.101-15.985,34.527-15.985
		c13.428,0,25.576,5.754,34.528,15.985c1.278,1.279,3.196,2.557,5.115,2.557c1.278,0,3.197-0.639,3.836-1.278
		C148.365,72.252,148.365,67.776,146.447,65.219z"/>
</g>
</svg>
