<?xml version="1.0" encoding="utf-8"?>
<!-- Generator: Adobe Illustrator 15.0.0, SVG Export Plug-In . SVG Version: 6.00 Build 0)  -->
<!DOCTYPE svg PUBLIC "-//W3C//DTD SVG 1.1//EN" "http://www.w3.org/Graphics/SVG/1.1/DTD/svg11.dtd">
<svg version="1.1" id="ﾃ神xA1_ﾃ神xBB_ﾃ神xBE_ﾃ神xB9__x5F_1"
	 xmlns="http://www.w3.org/2000/svg" xmlns:xlink="http://www.w3.org/1999/xlink" x="0px" y="0px" width="256px" height="256px"
	 viewBox="0 0 256 256" enable-background="new 0 0 256 256" xml:space="preserve">
<g>
	<g>
		<path fill="#FFA726" d="M67.047,146.286c0,13.464-10.916,24.381-24.381,24.381c-13.464,0-24.38-10.917-24.38-24.381
			c0-13.465,10.917-24.382,24.38-24.382C56.131,121.904,67.047,132.821,67.047,146.286"/>
		<path fill="#FFA726" d="M237.715,146.286c0,13.464-10.918,24.381-24.381,24.381c-13.465,0-24.381-10.917-24.381-24.381
			c0-13.465,10.916-24.382,24.381-24.382C226.797,121.904,237.715,132.821,237.715,146.286"/>
	</g>
	<path fill="#FFB74D" d="M36.571,103.619c0-77.563,182.856-50.494,182.856,0v60.952C219.428,215.065,178.494,256,128,256
		s-91.429-40.935-91.429-91.429V103.619z"/>
	<path fill="#424242" d="M230.953,99.583c-2.889-36.404-15.607-72.265-60.287-81.297L158.477,0H128
		C71.752,0,24.381,45.592,24.381,109.714v20.724l18.285,21.943V115.81l128-42.667l42.668,36.571v42.667l18.285-21.943v-20.724
		C231.619,106.276,231.357,102.904,230.953,99.583"/>
	<g>
		<path fill="#784719" d="M182.857,152.381c0,6.738-5.453,12.19-12.191,12.19s-12.189-5.452-12.189-12.19s5.451-12.19,12.189-12.19
			S182.857,145.643,182.857,152.381"/>
		<path fill="#784719" d="M97.523,152.381c0,6.738-5.455,12.19-12.189,12.19c-6.736,0-12.191-5.452-12.191-12.19
			s5.455-12.19,12.191-12.19C92.068,140.19,97.523,145.643,97.523,152.381"/>
	</g>
	<path fill="#FB8C00" d="M97.523,207.238h60.953c0,0-12.191,18.285-30.477,18.285S97.523,207.238,97.523,207.238z"/>
</g>
</svg>
